<?xml version="1.0" encoding="UTF-8" standalone="no"?>
<svg
   xmlns:dc="http://purl.org/dc/elements/1.1/"
   xmlns:cc="http://creativecommons.org/ns#"
   xmlns:rdf="http://www.w3.org/1999/02/22-rdf-syntax-ns#"
   xmlns:svg="http://www.w3.org/2000/svg"
   xmlns="http://www.w3.org/2000/svg"
   xmlns:sodipodi="http://sodipodi.sourceforge.net/DTD/sodipodi-0.dtd"
   xmlns:inkscape="http://www.inkscape.org/namespaces/inkscape"
   width="75mm"
   height="75mm"
   viewBox="0 0 75 75.000001"
   version="1.1"
   id="svg8"
   inkscape:version="1.0.2-2 (e86c870879, 2021-01-15)"
   sodipodi:docname="datacean_icon_squared.svg">
  <defs
     id="defs2" />
  <sodipodi:namedview
     id="base"
     pagecolor="#ffffff"
     bordercolor="#666666"
     borderopacity="1.0"
     inkscape:pageopacity="0.0"
     inkscape:pageshadow="2"
     inkscape:zoom="0.98994949"
     inkscape:cx="265.43187"
     inkscape:cy="115.94879"
     inkscape:document-units="mm"
     inkscape:current-layer="layer1"
     inkscape:document-rotation="0"
     showgrid="false"
     fit-margin-top="0"
     fit-margin-left="0"
     fit-margin-right="0"
     fit-margin-bottom="0"
     inkscape:window-width="1920"
     inkscape:window-height="1009"
     inkscape:window-x="-8"
     inkscape:window-y="-8"
     inkscape:window-maximized="1" />
  <metadata
     id="metadata5">
    <rdf:RDF>
      <cc:Work
         rdf:about="">
        <dc:format>image/svg+xml</dc:format>
        <dc:type
           rdf:resource="http://purl.org/dc/dcmitype/StillImage" />
        <dc:title></dc:title>
      </cc:Work>
    </rdf:RDF>
  </metadata>
  <g
     inkscape:label="Layer 1"
     inkscape:groupmode="layer"
     id="layer1"
     transform="translate(-102.68453,-28.825459)">
    <g
       id="g892"
       transform="translate(-1.8819597,-2.4773821)">
      <path
         style="color:#000000;font-style:normal;font-variant:normal;font-weight:normal;font-stretch:normal;font-size:medium;line-height:normal;font-family:sans-serif;font-variant-ligatures:normal;font-variant-position:normal;font-variant-caps:normal;font-variant-numeric:normal;font-variant-alternates:normal;font-variant-east-asian:normal;font-feature-settings:normal;font-variation-settings:normal;text-indent:0;text-align:start;text-decoration:none;text-decoration-line:none;text-decoration-style:solid;text-decoration-color:#000000;letter-spacing:normal;word-spacing:normal;text-transform:none;writing-mode:lr-tb;direction:ltr;text-orientation:mixed;dominant-baseline:auto;baseline-shift:baseline;text-anchor:start;white-space:normal;shape-padding:0;shape-margin:0;inline-size:0;clip-rule:nonzero;display:inline;overflow:visible;visibility:visible;opacity:1;isolation:auto;mix-blend-mode:normal;color-interpolation:sRGB;color-interpolation-filters:linearRGB;solid-color:#000000;solid-opacity:1;vector-effect:none;fill:#87ceeb;fill-opacity:1;fill-rule:nonzero;stroke:none;stroke-width:0.264583;stroke-linecap:butt;stroke-linejoin:miter;stroke-miterlimit:4;stroke-dasharray:none;stroke-dashoffset:0;stroke-opacity:1;color-rendering:auto;image-rendering:auto;shape-rendering:auto;text-rendering:auto;enable-background:accumulate;stop-color:#000000;stop-opacity:1"
         d="m 116.61162,66.473791 c -1.89825,-0.46378 -4.83753,-2.08712 -6.27767,-3.4671 -1.00889,-0.96676 -1.34191,-1.53212 -1.79132,-3.04116 -0.64542,-2.16719 -1.04544,-7.146438 -0.57413,-7.146438 0.1652,0 1.7441,1.22039 3.50867,2.711978 1.76457,1.49159 3.5208,2.9501 3.90273,3.24115 0.65593,0.49984 1.12717,0.5308 8.50369,0.55868 10.04509,0.038 10.58741,0.0556 10.58741,0.34517 0,0.37164 -1.83223,2.21875 -3.2879,3.31463 -4.22191,3.17837 -10.0837,4.57954 -14.57148,3.48309 z"
         id="path54" />
      <path
         style="color:#000000;font-style:normal;font-variant:normal;font-weight:normal;font-stretch:normal;font-size:medium;line-height:normal;font-family:sans-serif;font-variant-ligatures:normal;font-variant-position:normal;font-variant-caps:normal;font-variant-numeric:normal;font-variant-alternates:normal;font-variant-east-asian:normal;font-feature-settings:normal;font-variation-settings:normal;text-indent:0;text-align:start;text-decoration:none;text-decoration-line:none;text-decoration-style:solid;text-decoration-color:#000000;letter-spacing:normal;word-spacing:normal;text-transform:none;writing-mode:lr-tb;direction:ltr;text-orientation:mixed;dominant-baseline:auto;baseline-shift:baseline;text-anchor:start;white-space:normal;shape-padding:0;shape-margin:0;inline-size:0;clip-rule:nonzero;display:inline;overflow:visible;visibility:visible;opacity:1;isolation:auto;mix-blend-mode:normal;color-interpolation:sRGB;color-interpolation-filters:linearRGB;solid-color:#000000;solid-opacity:1;vector-effect:none;fill:#4682b4;fill-opacity:1;fill-rule:nonzero;stroke:none;stroke-width:0.264583;stroke-linecap:butt;stroke-linejoin:miter;stroke-miterlimit:4;stroke-dasharray:none;stroke-dashoffset:0;stroke-opacity:1;color-rendering:auto;image-rendering:auto;shape-rendering:auto;text-rendering:auto;enable-background:accumulate;stop-color:#000000;stop-opacity:1"
         d="m 127.06266,76.101111 c -4.23504,-0.57496 -8.07815,-2.06302 -11.85149,-4.58894 -2.95437,-1.9777 -4.3792,-3.29288 -5.1017,-4.70908 -0.28012,-0.54908 -0.50931,-1.05952 -0.50931,-1.1343 0,-0.0748 0.56851,0.19923 1.26335,0.60893 4.53771,2.67553 9.15751,3.27507 14.47936,1.87907 4.72449,-1.2393 8.65351,-4.11903 13.96341,-10.2343 3.53301,-4.06889 5.43873,-5.733646 7.93417,-6.930951 1.19872,-0.575147 2.92288,-1.188483 3.83146,-1.362969 3.08469,-0.592389 7.22293,0.03578 9.12642,1.385348 l 0.72422,0.513466 -0.64682,0.579708 c -0.7569,0.678353 -3.41194,4.698628 -5.29953,8.024548 -5.78568,10.19434 -13.75558,15.63795 -23.54642,16.0827 -1.45603,0.0661 -3.42123,0.0152 -4.36712,-0.11323 z"
         id="path52" />
      <path
         style="color:#000000;font-style:normal;font-variant:normal;font-weight:normal;font-stretch:normal;font-size:medium;line-height:normal;font-family:sans-serif;font-variant-ligatures:normal;font-variant-position:normal;font-variant-caps:normal;font-variant-numeric:normal;font-variant-alternates:normal;font-variant-east-asian:normal;font-feature-settings:normal;font-variation-settings:normal;text-indent:0;text-align:start;text-decoration:none;text-decoration-line:none;text-decoration-style:solid;text-decoration-color:#000000;letter-spacing:normal;word-spacing:normal;text-transform:none;writing-mode:lr-tb;direction:ltr;text-orientation:mixed;dominant-baseline:auto;baseline-shift:baseline;text-anchor:start;white-space:normal;shape-padding:0;shape-margin:0;inline-size:0;clip-rule:nonzero;display:inline;overflow:visible;visibility:visible;opacity:1;isolation:auto;mix-blend-mode:normal;color-interpolation:sRGB;color-interpolation-filters:linearRGB;solid-color:#000000;solid-opacity:1;vector-effect:none;fill:#104e8b;fill-opacity:1;fill-rule:nonzero;stroke:none;stroke-width:0.264583;stroke-linecap:butt;stroke-linejoin:miter;stroke-miterlimit:4;stroke-dasharray:none;stroke-dashoffset:0;stroke-opacity:1;color-rendering:auto;image-rendering:auto;shape-rendering:auto;text-rendering:auto;enable-background:accumulate;stop-color:#000000;stop-opacity:1"
         d="m 138.04784,87.980591 c -8.11901,-0.85464 -16.54367,-5.20654 -22.38114,-11.56135 -1.77814,-1.93572 -3.2823,-3.983 -3.07712,-4.18818 0.0715,-0.0715 0.54601,0.23524 1.05445,0.68166 2.25436,1.97935 6.65874,3.93072 11.16968,4.94874 3.26961,0.73788 8.75006,0.62535 12.06999,-0.24784 5.00758,-1.31706 9.68068,-4.04133 13.46229,-7.84809 2.66839,-2.68613 3.90697,-4.38976 6.98549,-9.60835 2.86118,-4.85017 4.34332,-6.64901 6.87184,-8.34019 2.54683,-1.703421 4.25892,-2.279446 6.78017,-2.281167 2.03349,-0.0014 2.80306,0.246625 3.92774,1.265811 1.22742,1.112275 1.46901,1.950283 1.45879,5.060166 -0.011,3.33905 -0.33432,5.28345 -1.44265,8.67507 -1.68073,5.14325 -4.28118,9.29089 -8.42443,13.43678 -2.84016,2.84197 -5.07562,4.47707 -8.88091,6.49583 -5.80259,3.07836 -12.41587,4.26462 -19.57419,3.51111 z"
         id="path44" />
    </g>
  </g>
</svg>
